<?xml version="1.0" encoding="UTF-8"?>
<svg xmlns="http://www.w3.org/2000/svg" viewBox="0 0 1024 1024" width="1024" height="1024" role="img" aria-label="Pixel Eruv logo icon">
  <defs>
    <radialGradient id="portalGlow" cx="50%" cy="50%" r="60%">
      <stop offset="0%" stop-color="#58d8c9" stop-opacity="0.22"/>
      <stop offset="60%" stop-color="#39c7b8" stop-opacity="0.08"/>
      <stop offset="100%" stop-color="#0f172a" stop-opacity="0"/>
    </radialGradient>
  </defs>
  <rect width="100%" height="100%" fill="none"/>
  <circle cx="512" cy="512" r="250" fill="url(#portalGlow)"/>
  <circle cx="512" cy="512" r="270" fill="#0f172a" fill-opacity="0.06"/><circle cx="512" cy="512" r="178" fill="none" stroke="#39c7b8" stroke-opacity="0.22" stroke-width="24"/><circle cx="512" cy="512" r="105" fill="none" stroke="#f7c14b" stroke-opacity="0.16" stroke-width="18"/>
  <g>
    <rect x="275" y="623" width="64" height="64" rx="0" fill="#0f172a" fill-opacity="1"/><rect x="235" y="532" width="64" height="64" rx="0" fill="#0f172a" fill-opacity="1"/><rect x="235" y="428" width="64" height="64" rx="0" fill="#f5f1e4" fill-opacity="1"/><rect x="273" y="340" width="64" height="64" rx="0" fill="#0f172a" fill-opacity="1"/><rect x="340" y="273" width="64" height="64" rx="0" fill="#0f172a" fill-opacity="1"/><rect x="428" y="235" width="64" height="64" rx="0" fill="#f5f1e4" fill-opacity="1"/><rect x="523" y="234" width="64" height="64" rx="0" fill="#0f172a" fill-opacity="1"/><rect x="620" y="273" width="64" height="64" rx="0" fill="#58d8c9" fill-opacity="1"/><rect x="697" y="355" width="64" height="64" rx="0" fill="#0f172a" fill-opacity="1"/><rect x="728" y="445" width="64" height="64" rx="0" fill="#f5f1e4" fill-opacity="1"/>
    <rect x="742" y="210" width="30" height="30" rx="0" fill="#58d8c9" fill-opacity="1"/><rect x="802" y="252" width="28" height="28" rx="0" fill="#f7c14b" fill-opacity="1"/><rect x="808" y="320" width="28" height="28" rx="0" fill="#8d6cff" fill-opacity="1"/><rect x="768" y="154" width="24" height="24" rx="0" fill="#bdebf2" fill-opacity="0.82"/>
    <rect x="510" y="470" width="22" height="22" rx="0" fill="#bdebf2" fill-opacity="0.84"/><rect x="552" y="464" width="18" height="18" rx="0" fill="#58d8c9" fill-opacity="0.9"/>
  </g>
</svg>